<?xml version="1.0" standalone="no"?>
<!DOCTYPE svg PUBLIC "-//W3C//DTD SVG 20010904//EN"
 "http://www.w3.org/TR/2001/REC-SVG-20010904/DTD/svg10.dtd">
<svg version="1.0" xmlns="http://www.w3.org/2000/svg"
 width="256.000000pt" height="256.000000pt" viewBox="0 0 256.000000 256.000000"
 preserveAspectRatio="xMidYMid meet">

<g transform="translate(0.000000,256.000000) scale(0.100000,-0.100000)"
fill="#000000" stroke="none">
<path d="M1322 1712 c-18 -15 -32 -33 -32 -41 0 -7 23 -42 51 -78 28 -35 50
-65 48 -67 -2 -2 -68 -53 -146 -113 l-141 -110 49 -64 c28 -35 54 -68 59 -73
5 -5 24 4 45 20 22 17 39 24 43 17 4 -5 40 -53 81 -106 l74 -97 -24 -20 c-13
-10 -27 -19 -31 -20 -16 0 -7 -33 18 -66 l26 -34 38 27 c33 24 36 30 27 50 -8
19 -5 26 22 48 26 23 29 30 20 47 -9 17 -7 24 17 44 16 13 33 23 38 24 5 0 1
9 -10 21 -21 23 -23 19 39 64 16 11 17 16 5 34 -11 18 -10 23 7 35 60 43 61
33 -16 131 -39 50 -114 146 -166 215 -53 69 -98 128 -102 132 -3 4 -21 -5 -39
-20z m177 -321 c36 -39 35 -50 -8 -80 l-30 -22 -11 21 c-11 20 -12 20 -48 -10
-36 -30 -37 -30 -51 -10 -13 20 -14 19 -50 -9 -33 -27 -38 -28 -47 -13 -13 21
-7 42 12 42 8 0 17 7 20 15 4 8 11 15 18 15 6 1 43 27 81 59 56 46 71 55 76
42 4 -9 21 -32 38 -50z m21 -173 l23 -32 -34 -28 -34 -29 -27 33 -27 33 32 27
c18 15 35 28 38 28 3 0 16 -14 29 -32z"/>
</g>
</svg>
